# xmcd CD database file
#
# Track frame offsets:
#	183
#	11333
#	20945
#	36070
#	54358
#	71833
#	85008
#	99525
#	114083
#	126233
#	140583
#	158395
#	176995
#	187695
#	205395
#
# Disc length: 2950 seconds
#
# Revision: 2
# Processed by: cddbd v1.4PL0 Copyright (c) Steve Scherf et al.
# Submitted via: CDex 1.40Beta9
#
DISCID=c20b840f
DTITLE=Francis Moore Orchestra - Memories Volume 2
DYEAR=1900
DGENRE=Blues
TTITLE0=Everybody Loves Somebody
TTITLE1=Rain And Tears
TTITLE2=Tonight I Celebrate My Love
TTITLE3=Love Hurts
TTITLE4=Can't Help Falling In Love
TTITLE5=Beautiful Noise
TTITLE6=With A Little Help From Friends
TTITLE7=Monday Monday
TTITLE8=Ruby Tuesday
TTITLE9=To Be In Love
TTITLE10=Hotel California
TTITLE11=Words
TTITLE12=Wishin' And Hopin'
TTITLE13=Eres Tu (Touch The Wind)
TTITLE14=Don't Go Breaking My Heart
EXTD=ID3G: 0
EXTT0=
EXTT1=
EXTT2=
EXTT3=
EXTT4=
EXTT5=
EXTT6=
EXTT7=
EXTT8=
EXTT9=
EXTT10=
EXTT11=
EXTT12=
EXTT13=
EXTT14=
PLAYORDER=
